<!-- icon666.com - MILLIONS vector ICONS FREE --><svg version="1.1" id="Layer_1" xmlns="http://www.w3.org/2000/svg" xmlns:xlink="http://www.w3.org/1999/xlink" x="0px" y="0px" viewBox="0 0 489.736 489.736" style="enable-background:new 0 0 489.736 489.736;" xml:space="preserve"><g><g><g><path d="M394.739,213.175h-0.1c-0.4-9-8.8-24.3-28.1-18.8l-141.8,55.2l-141.8-55.1c-18.6-5.6-28.1,7.8-28.1,18.7v117.8 c0,53.2,35.4,95.9,78.2,95.9h183.5c42.7,0,77.1-43.8,78.2-96.9V213.175z M354.039,329.975h-0.1c0,30.2-17.7,55.2-37.5,55.2 h-183.4c-20.8,0-37.5-25-37.5-55.2v-86.5l123,46.9c4.2,2.1,9.4,2.1,14.6,0l120.9-46.9V329.975z"></path><path d="M484.239,456.075l-25.6-31.4c0.3-1,0.5-2,0.6-3v-311.7c0-17-22.1-23.2-24-24l-203.2-84.4c-5.2-2.1-10.4-2.1-15.6,0 l-203.3,84.5c-20.8,11-11.8,33.7,0,37.5l203.3,84.4c5.8,2,11.1,2.3,15.6,0l185.5-77.1v289.4l-29.2,35.8 c-7.3,9.4-5.2,21.9,3.1,29.2c9.4,7.3,21.9,5.2,29.2-3.1l16.7-19.8l16.7,19.8c5,6.8,16.7,10.1,27.1,3.1 C490.539,477.975,491.539,464.375,484.239,456.075z M223.639,167.375l-150.1-62.6l151.1-62.5l149.1,62.5L223.639,167.375z"></path></g></g></g></svg>