<!-- icon666.com - MILLIONS vector ICONS FREE --><svg version="1.1" id="Capa_1" xmlns="http://www.w3.org/2000/svg" xmlns:xlink="http://www.w3.org/1999/xlink" x="0px" y="0px" viewBox="0 0 30.82 30.82" style="enable-background:new 0 0 30.82 30.82;" xml:space="preserve"><g><path d="M17.976,21.405v-2.182H28.22v-1.731V1.719V0h-1.707H4.311H2.602v1.719v15.773v1.731h10.219l-0.012,2.182H1.834v8.309h0.768 v1.106h1.617v-1.106h21.924v1.106h1.617v-1.106h1.225v-8.309H17.976z M6.127,27.887c-1.461,0-2.643-1.183-2.643-2.64 c0-1.458,1.182-2.641,2.643-2.641c1.457,0,2.641,1.183,2.641,2.641C8.768,26.704,7.584,27.887,6.127,27.887z M4.295,17.533V1.795 h22.498v15.738C26.793,17.533,4.295,17.533,4.295,17.533z M26.568,28.009H18.73v-1.194h7.838V28.009z M26.568,26.006H18.73v-1.191 h7.838V26.006z M26.568,23.877H18.73v-1.193h7.838V23.877z"></path><circle cx="6.134" cy="25.218" r="1.841"></circle></g></svg>